<svg width="347" height="235" viewBox="0 0 347 235" fill="none" xmlns="http://www.w3.org/2000/svg">
<path d="M10.7513 108.315L10.8874 108.179L10.8974 107.987L13.0181 66.9024C13.0608 66.076 13.1028 65.2607 13.1443 64.4563C14.6851 34.5921 15.4518 19.7314 16.9873 11.9082C17.7743 7.89827 18.7471 5.83818 20.0498 4.55313C21.3033 3.31657 22.9067 2.74172 25.2056 1.9175C25.3202 1.87644 25.4364 1.83475 25.5545 1.79233C25.595 1.77776 25.7253 1.74825 25.9914 1.71411C26.2427 1.68187 26.5796 1.64954 27.0055 1.61747C27.8565 1.55338 29.043 1.49177 30.5714 1.43282C33.627 1.31496 38.032 1.20838 43.8161 1.11305C55.3834 0.922395 72.4547 0.776893 95.2525 0.675593C140.847 0.472996 209.341 0.447229 302.503 0.590444L574.933 1.00923L583.928 4.60989C595.326 9.17254 603.64 16.0834 609.739 26.0531L614.5 33.8339V181.386L556.731 196.914C540.744 201.212 526.076 205.12 515.323 207.953C509.947 209.37 505.55 210.519 502.457 211.313C500.91 211.71 499.691 212.018 498.839 212.227C498.412 212.332 498.08 212.411 497.845 212.464C497.794 212.476 497.748 212.486 497.707 212.495C497.684 212.426 497.66 212.333 497.636 212.213C497.551 211.789 497.494 211.148 497.473 210.325C497.432 208.687 497.536 206.41 497.798 203.895C500.639 176.647 477.033 154.076 446.028 154.076C433.143 154.076 421.264 158.659 411.025 167.565C405.087 172.728 400.995 177.927 398.562 183.685C396.127 189.445 395.369 195.727 396.043 203.034L396.921 212.543H187.619L188.731 209.668C190.077 206.188 190.363 200.882 189.822 195.545C189.28 190.199 187.899 184.727 185.832 180.902C170.858 153.196 131.435 146.208 104.933 166.446C99.4955 170.598 95.6115 175.17 93.0919 180.63C90.5739 186.086 89.4335 192.397 89.4335 200.003V212.536L49.8561 212.539C35.2262 212.541 25.0151 212.408 18.191 212.096C14.778 211.939 12.2233 211.738 10.3913 211.489C9.47521 211.364 8.74921 211.228 8.19173 211.083C7.62628 210.935 7.26829 210.785 7.06355 210.65C5.64524 209.713 4.547 208.627 3.67887 206.899C2.80185 205.154 2.14758 202.73 1.67174 199.099C0.719253 191.831 0.5 179.894 0.5 159.269V118.55L5.55228 113.506L10.7513 108.315ZM488.993 37.1434H488.771L488.623 37.3081L484.857 41.4716C483.984 42.4371 483.284 43.3456 482.741 44.5108C482.199 45.6731 481.825 47.0631 481.564 48.9817C481.046 52.8002 480.962 58.824 480.962 69.5318C480.962 80.9617 480.991 86.9328 481.573 90.5086C481.866 92.3146 482.306 93.5512 482.976 94.5866C483.64 95.6124 484.512 96.4083 485.594 97.349L490.053 101.228L490.194 101.35H490.381H538.507C562.331 101.35 574.394 101.342 580.845 100.898C584.064 100.676 585.948 100.343 587.214 99.8165C588.519 99.2734 589.141 98.5339 589.851 97.652C590.456 96.8998 590.943 95.6721 591.341 94.1576C591.744 92.6264 592.072 90.7404 592.329 88.6202C592.842 84.3785 593.075 79.1583 593.037 73.8797C592.998 68.6006 592.688 63.2496 592.111 58.7456C591.823 56.4938 591.467 54.4468 591.042 52.7227C590.62 51.0065 590.123 49.5784 589.538 48.585C588.009 45.9873 586.548 43.9287 584.452 42.3351C582.353 40.7394 579.658 39.6407 575.708 38.8779C567.84 37.3585 554.807 37.1434 531.131 37.1434H488.993ZM126.645 232.366C122.842 231.187 116.872 227.875 113.422 225.022C98.5649 212.736 97.6056 195.992 105.272 183.333C112.948 170.657 129.302 162.042 149.161 166.186C157.412 167.907 164.971 172.596 170.467 178.74C175.964 184.885 179.367 192.451 179.367 199.908C179.367 208.533 174.028 218.632 165.984 225.08C154.491 234.295 140.959 236.804 126.645 232.366ZM153.082 211.961C155.223 210.1 156.613 208.544 157.455 206.722C158.297 204.898 158.565 202.86 158.565 200.084C158.565 198.144 158.26 196.011 157.77 194.131C157.283 192.266 156.598 190.585 155.802 189.596C152.457 185.443 146.754 183.247 140.916 183.013C135.075 182.78 128.994 184.506 124.859 188.335C123.111 189.953 121.959 191.461 121.256 193.381C120.558 195.286 120.32 197.556 120.32 200.665C120.32 204.018 120.509 206.236 121.289 208.03C122.077 209.842 123.44 211.16 125.618 212.79C133.437 218.639 145.825 218.273 153.082 211.961ZM433.798 232.398C417.934 227.477 407.584 214.303 407.512 199.058C407.487 193.845 408.368 189.601 410.463 185.681C412.561 181.755 415.897 178.117 420.843 174.151C433.349 164.125 449.731 163.047 462.999 168.219C476.266 173.392 486.333 184.776 486.333 199.611C486.333 211.412 479.571 221.572 469.6 227.809C459.628 234.045 446.483 236.333 433.798 232.398ZM459.849 211.718C466.007 206.362 467.153 199.05 464.614 193.075C462.078 187.107 455.888 182.519 447.486 182.519C438.098 182.519 431.173 187.363 428.388 193.576C425.593 199.811 427.006 207.347 434.13 212.561C442.342 218.57 452.335 218.253 459.849 211.718ZM74.8209 186.577C75.2671 186.37 75.709 186.125 76.1023 185.701C76.4949 185.277 76.8086 184.708 77.0676 183.895C77.5787 182.289 77.9126 179.61 78.1395 174.886C78.5944 165.415 78.6241 147.503 78.6241 112.962C78.6241 86.2002 78.4869 68.1924 78.1456 56.6964C77.9749 50.9501 77.753 46.8199 77.4703 44.0332C77.3291 42.6414 77.1713 41.5702 76.9933 40.7947C76.9044 40.4074 76.8075 40.0806 76.6992 39.8189C76.5953 39.5677 76.4613 39.3271 76.272 39.1624C75.8364 38.7835 75.0644 38.4976 74.1104 38.2645C73.1293 38.0248 71.8661 37.8214 70.3679 37.6562C67.3695 37.3256 63.3868 37.1434 58.7478 37.1434C52.1972 37.1434 48.331 37.2403 45.8913 37.6929C44.6613 37.9211 43.7555 38.2458 43.0374 38.7193C42.3139 39.1965 41.8173 39.801 41.371 40.5263C41.247 40.7278 41.1539 41.0078 41.0761 41.3213C40.9954 41.6463 40.9207 42.0522 40.8509 42.5349C40.711 43.5008 40.586 44.8058 40.4746 46.4486C40.2519 49.736 40.082 54.4089 39.9639 60.4959C39.7277 72.6715 39.6983 90.5294 39.8703 114.329C40.0889 144.586 40.3116 162.247 40.773 172.505C41.0035 177.629 41.2945 180.931 41.68 183.039C41.8726 184.092 42.0934 184.875 42.356 185.446C42.6201 186.021 42.9444 186.422 43.3633 186.652C43.8965 186.945 44.7237 187.176 45.7185 187.365C46.7279 187.557 47.9602 187.714 49.3375 187.837C52.0931 188.085 55.4585 188.203 58.8408 188.193C62.2233 188.183 65.6326 188.046 68.4764 187.782C69.898 187.65 71.1843 187.486 72.2582 187.289C73.3228 187.094 74.2126 186.861 74.8209 186.577ZM212.181 97.8846C212.986 97.1106 213.634 96.3153 214.137 95.1938C214.636 94.0827 214.98 92.6781 215.222 90.7C215.705 86.7552 215.795 80.3943 215.795 69.2469C215.795 58.0995 215.705 51.7386 215.222 47.7938C214.98 45.8157 214.636 44.4111 214.137 43.3C213.634 42.1785 212.986 41.3832 212.181 40.6092C211.317 39.7795 210.526 39.1132 209.069 38.6167C207.644 38.1311 205.599 37.8134 202.235 37.5987C195.501 37.1688 183.292 37.1434 159.73 37.1434C139.24 37.1434 126.958 37.2374 119.51 37.5836C115.787 37.7567 113.25 37.9936 111.491 38.3183C109.741 38.6416 108.693 39.0628 108.012 39.6553C106.919 40.6056 106.041 42.0372 105.348 43.9421C104.653 45.8493 104.132 48.2611 103.772 51.2074C103.052 57.0991 102.967 65.1955 103.47 75.8092C103.56 77.7045 103.621 79.4649 103.677 81.0979C103.821 85.2644 103.937 88.6019 104.428 91.2357C104.774 93.0857 105.311 94.6375 106.2 95.92C107.094 97.2092 108.322 98.1944 109.996 98.9449C113.307 100.429 118.423 101.017 126.329 101.248C132.01 101.413 139.183 101.394 148.237 101.37C151.817 101.361 155.69 101.35 159.882 101.35C183.367 101.35 195.538 101.325 202.254 100.895C205.608 100.68 207.648 100.362 209.071 99.8769C210.526 99.3804 211.318 98.7142 212.181 97.8846ZM337.399 99.0305C338.25 98.4892 338.954 97.904 339.492 96.913C340.02 95.9419 340.369 94.6201 340.609 92.6448C341.089 88.6999 341.157 81.9317 341.157 69.6208C341.157 59.4488 341.008 52.5864 340.62 48.0143C340.426 45.7288 340.171 43.9965 339.838 42.7009C339.507 41.4131 339.087 40.503 338.526 39.9141C337.884 39.2407 336.999 38.7533 335.404 38.3863C333.821 38.0222 331.49 37.7661 327.909 37.5836C320.741 37.2183 308.446 37.1434 286.838 37.1434C263.642 37.1434 251.369 37.1824 244.466 37.5982C241.017 37.806 238.87 38.1094 237.357 38.564C235.815 39.0271 234.944 39.644 234.044 40.4265C233.187 41.1721 232.492 41.9127 231.954 42.9791C231.422 44.0364 231.062 45.3802 230.812 47.3113C230.314 51.1593 230.239 57.4979 230.239 68.8953C230.239 78.8959 230.378 85.3262 230.804 89.6122C231.229 93.889 231.946 96.1235 233.177 97.652C233.888 98.5343 234.508 99.2744 235.821 99.8174C237.092 100.343 238.99 100.677 242.238 100.898C248.747 101.343 260.928 101.35 284.999 101.35C304.546 101.35 316.881 101.241 324.684 100.905C328.585 100.738 331.368 100.513 333.361 100.214C335.339 99.9174 336.597 99.5404 337.399 99.0305ZM461.222 97.8018C462.24 96.9703 463.069 96.2406 463.702 95.215C464.336 94.1864 464.749 92.9002 465.026 90.9807C465.576 87.1679 465.611 80.6637 465.611 68.271C465.611 55.9058 465.576 49.4086 465.046 45.7147C464.78 43.8584 464.382 42.6459 463.758 41.7375C463.132 40.8266 462.311 40.2721 461.333 39.6763C459.507 38.5637 456.52 37.952 449.179 37.597C441.802 37.2403 429.922 37.1434 410.201 37.1434C405.6 37.1434 401.382 37.1262 397.516 37.1104C388.904 37.0752 382.04 37.0471 376.586 37.2328C368.711 37.5008 363.647 38.2133 360.468 40.0788C357.206 41.9927 356.001 45.0639 355.638 49.7026C355.388 52.8858 355.529 56.8954 355.706 61.8965C355.785 64.1299 355.87 66.561 355.931 69.2046C356.185 80.1717 356.435 86.5603 357.007 90.5713C357.293 92.5816 357.664 94.0253 358.172 95.1629C358.685 96.3111 359.328 97.1258 360.124 97.8897C360.984 98.7155 361.777 99.3789 363.202 99.8743C364.596 100.359 366.576 100.677 369.804 100.892C376.266 101.323 387.914 101.35 410.316 101.35C432.867 101.35 444.515 101.327 451.032 100.885C454.291 100.663 456.309 100.335 457.782 99.8349C459.276 99.3274 460.184 98.6502 461.222 97.8018Z" fill="#FFC700" stroke="black"/>
</svg>
